<?xml version="1.0" encoding="UTF-8"?>
<svg width="112px" height="112px" viewBox="0 0 112 112" version="1.1" xmlns="http://www.w3.org/2000/svg" xmlns:xlink="http://www.w3.org/1999/xlink">
    <!-- Generator: Sketch 58 (84663) - https://sketch.com -->
    <title>Boat</title>
    <desc>Created with Sketch.</desc>
    <defs>
        <polygon id="path-1" points="0 112 112 112 112 0 0 0"></polygon>
    </defs>
    <g id="Page-1" stroke="none" stroke-width="1" fill="none" fill-rule="evenodd">
        <g id="ISF_Desktop" transform="translate(-207.000000, -4722.000000)">
            <g id="Investment" transform="translate(188.000000, 3986.000000)">
                <g id="Arrows" transform="translate(10.000000, 573.000000)">
                    <g id="3" transform="translate(9.000000, 163.000000)">
                        <g id="Boat">
                            <g id="Group-26">
                                <g id="Group-24">
                                    <polygon id="Fill-1" fill="#E8E6E4" points="55.8730159 79 47.1428571 86.0769231 0 86.0769231 0 102 96.031746 102 110 80.7692308 110 79"></polygon>
                                    <polygon id="Fill-2" fill="#EFC72E" points="84 0 39 67 84 67"></polygon>
                                    <polygon id="Fill-3" fill="#2D2D2E" points="63 88 67 88 67 84 63 84"></polygon>
                                    <polygon id="Fill-4" fill="#2D2D2E" points="70 88 74 88 74 84 70 84"></polygon>
                                    <polygon id="Fill-5" fill="#2D2D2E" points="77 88 81 88 81 84 77 84"></polygon>
                                    <polygon id="Fill-6" fill="#2D2D2E" points="84 79 88 79 88 0 84 0"></polygon>
                                    <polygon id="Fill-7" fill="#2D2D2E" points="70 40 74 40 74 35 70 35"></polygon>
                                    <polygon id="Fill-8" fill="#2D2D2E" points="73.3333333 60 69.6666667 60 69.6666667 56.5 66 56.5 66 53 73.3333333 53 73.3333333 50.5815 66 47.0815 66 39 77 39 77 42.5 69.6666667 42.5 69.6666667 44.91675 77 48.41675 77 56.5 73.3333333 56.5"></polygon>
                                    <polygon id="Fill-9" fill="#2D2D2E" points="39 70 86 70 86 66 39 66"></polygon>
                                    <polygon id="Fill-10" fill="#2D2D2E" points="21 56 60 56 60 52 21 52"></polygon>
                                    <polygon id="Fill-11" fill="#2D2D2E" points="17 46 42 46 42 42 17 42"></polygon>
                                    <polygon id="Fill-12" fill="#2D2D2E" points="32 39 53 39 53 35 32 35"></polygon>
                                    <polygon id="Fill-13" fill="#2D2D2E" points="10 46 14 46 14 42 10 42"></polygon>
                                    <polygon id="Fill-14" fill="#2D2D2E" points="4 56 18 56 18 52 4 52"></polygon>
                                    <polygon id="Fill-15" fill="#2D2D2E" points="0 74 4 74 4 70 0 70"></polygon>
                                    <g id="Group-23">
                                        <path d="M112,112 L112,96.25 C108.50175,96.25 108.49825,99.75 105,99.75 C101.50175,99.75 101.49825,96.25 98,96.25 C94.50175,96.25 94.49825,99.75 91,99.75 C87.50175,99.75 87.49825,96.25 84,96.25 C80.50175,96.25 80.49825,99.75 77,99.75 C73.50175,99.75 73.49825,96.25 70,96.25 C66.50175,96.25 66.49825,99.75 63,99.75 C59.50175,99.75 59.49825,96.25 56,96.25 C52.50175,96.25 52.49825,99.75 49,99.75 C45.50175,99.75 45.49825,96.25 42,96.25 C38.50175,96.25 38.49825,99.75 35,99.75 C31.50175,99.75 31.49825,96.25 28,96.25 C24.50175,96.25 24.49825,99.75 21,99.75 C17.50175,99.75 17.49825,96.25 14,96.25 C10.50175,96.25 10.49825,99.75 7,99.75 C3.50175,99.75 3.49825,96.25 0,96.25 L0,112 L112,112 Z" id="Fill-16" fill="#79C9CC"></path>
                                        <path d="M105,101.5 C102.5255,101.5 101.21825,100.19275 100.26275,99.239 C99.4035,98.37975 98.9835,98 98,98 C97.0165,98 96.5965,98.37975 95.73725,99.239 C94.78175,100.19275 93.4745,101.5 91,101.5 C88.5255,101.5 87.21825,100.19275 86.26275,99.239 C85.4035,98.37975 84.9835,98 84,98 C83.0165,98 82.5965,98.37975 81.73725,99.239 C80.78175,100.19275 79.4745,101.5 77,101.5 C74.5255,101.5 73.21825,100.19275 72.26275,99.239 C71.4035,98.37975 70.9835,98 70,98 C69.0165,98 68.5965,98.37975 67.73725,99.239 C66.78175,100.19275 65.4745,101.5 63,101.5 C60.5255,101.5 59.21825,100.19275 58.26275,99.239 C57.4035,98.37975 56.9835,98 56,98 C55.0165,98 54.5965,98.37975 53.73725,99.239 C52.78175,100.19275 51.4745,101.5 49,101.5 C46.5255,101.5 45.21825,100.19275 44.26275,99.239 C43.4035,98.37975 42.9835,98 42,98 C41.0165,98 40.5965,98.37975 39.73725,99.239 C38.78175,100.19275 37.4745,101.5 35,101.5 C32.5255,101.5 31.21825,100.19275 30.26275,99.239 C29.4035,98.37975 28.9835,98 28,98 C27.0165,98 26.5965,98.37975 25.73725,99.239 C24.78175,100.19275 23.4745,101.5 21,101.5 C18.5255,101.5 17.21825,100.19275 16.26275,99.239 C15.4035,98.37975 14.9835,98 14,98 C13.0165,98 12.5965,98.37975 11.73725,99.239 C10.78175,100.19275 9.4745,101.5 7,101.5 C4.5255,101.5 3.21825,100.19275 2.26275,99.239 C1.4035,98.37975 0.9835,98 0,98 L0,94.5 C2.4745,94.5 3.78175,95.80725 4.73725,96.761 C5.5965,97.62025 6.0165,98 7,98 C7.9835,98 8.4035,97.62025 9.26275,96.761 C10.21825,95.80725 11.5255,94.5 14,94.5 C16.4745,94.5 17.78175,95.80725 18.73725,96.761 C19.5965,97.62025 20.0165,98 21,98 C21.9835,98 22.4035,97.62025 23.26275,96.761 C24.21825,95.80725 25.5255,94.5 28,94.5 C30.4745,94.5 31.78175,95.80725 32.73725,96.761 C33.5965,97.62025 34.0165,98 35,98 C35.9835,98 36.4035,97.62025 37.26275,96.761 C38.21825,95.80725 39.5255,94.5 42,94.5 C44.4745,94.5 45.78175,95.80725 46.73725,96.761 C47.5965,97.62025 48.0165,98 49,98 C49.9835,98 50.4035,97.62025 51.26275,96.761 C52.21825,95.80725 53.5255,94.5 56,94.5 C58.4745,94.5 59.78175,95.80725 60.73725,96.761 C61.5965,97.62025 62.0165,98 63,98 C63.9835,98 64.4035,97.62025 65.26275,96.761 C66.21825,95.80725 67.5255,94.5 70,94.5 C72.4745,94.5 73.78175,95.80725 74.73725,96.761 C75.5965,97.62025 76.0165,98 77,98 C77.9835,98 78.4035,97.62025 79.26275,96.761 C80.21825,95.80725 81.5255,94.5 84,94.5 C86.4745,94.5 87.78175,95.80725 88.73725,96.761 C89.5965,97.62025 90.0165,98 91,98 C91.9835,98 92.4035,97.62025 93.26275,96.761 C94.21825,95.80725 95.5255,94.5 98,94.5 C100.4745,94.5 101.78175,95.80725 102.73725,96.761 C103.5965,97.62025 104.0165,98 105,98 C105.9835,98 106.4035,97.62025 107.26275,96.761 C108.21825,95.80725 109.5255,94.5 112,94.5 L112,98 C111.0165,98 110.5965,98.37975 109.73725,99.239 C108.78175,100.19275 107.4745,101.5 105,101.5" id="Fill-18" fill="#2D2D2E"></path>
                                        <mask id="mask-2" fill="white">
                                            <use xlink:href="#path-1"></use>
                                        </mask>
                                        <g id="Clip-21"></g>
                                        <path d="M3.5,84 L24.5,84 L24.5,80.5 L3.5,80.5 L3.5,84 Z M101.206,97.22125 L98.294,95.27875 L108.1465,80.5 L56.61425,80.5 L47.86425,87.5 L0,87.5 L0,77 L28,77 L28,84 L46.63575,84 L55.38575,77 L112,77 L112,81.03025 L101.206,97.22125 Z" id="Fill-20" fill="#2D2D2E" mask="url(#mask-2)"></path>
                                        <polygon id="Fill-22" fill="#FFFFFF" mask="url(#mask-2)" points="3.5 84 24.5 84 24.5 80.5 3.5 80.5"></polygon>
                                    </g>
                                </g>
                            </g>
                        </g>
                    </g>
                </g>
            </g>
        </g>
    </g>
</svg>