<?xml version="1.0" encoding="UTF-8"?>
<svg width="128px" height="112px" viewBox="0 0 128 112" version="1.1" xmlns="http://www.w3.org/2000/svg" xmlns:xlink="http://www.w3.org/1999/xlink">
    <!-- Generator: Sketch 58 (84663) - https://sketch.com -->
    <title>chart</title>
    <desc>Created with Sketch.</desc>
    <defs>
        <polygon id="path-1" points="0 112 128 112 128 0 0 0"></polygon>
    </defs>
    <g id="Page-1" stroke="none" stroke-width="1" fill="none" fill-rule="evenodd">
        <g id="ISF_Desktop" transform="translate(-198.000000, -4559.000000)">
            <g id="Investment" transform="translate(188.000000, 3986.000000)">
                <g id="Arrows" transform="translate(10.000000, 573.000000)">
                    <g id="1">
                        <g id="chart">
                            <g id="Group-25">
                                <polygon id="Fill-1" fill="#EFC72E" points="78.0003 69.9997 50.0003 41.9997 8.0003 83.9997 8.0003 111.9997 119.9993 111.9997 119.9993 28.0007"></polygon>
                                <polygon id="Fill-2" fill="#79C9CC" points="8.0001 0.0004 8.0001 84.0004 50.0001 41.9994 78.0001 69.9994 120.0001 28.0004 120.0001 0.0004"></polygon>
                                <polygon id="Fill-3" fill="#2D2D2E" points="9.4141 85.4141 6.5861 82.5861 50.0001 39.1721 78.0001 67.1721 118.5861 26.5861 121.4141 29.4141 78.0001 72.8281 50.0001 44.8281"></polygon>
                                <g id="Group-24">
                                    <path d="M56,42 C56,45.314 53.312,48 50,48 C46.687,48 44,45.314 44,42 C44,38.686 46.687,36 50,36 C53.312,36 56,38.686 56,42" id="Fill-4" fill="#FFFFFF"></path>
                                    <path d="M84,70 C84,73.314 81.312,76 78,76 C74.687,76 72,73.314 72,70 C72,66.686 74.687,64 78,64 C81.312,64 84,66.686 84,70" id="Fill-6" fill="#FFFFFF"></path>
                                    <path d="M14,84 C14,87.314 11.312,90 8,90 C4.687,90 2,87.314 2,84 C2,80.686 4.687,78 8,78 C11.312,78 14,80.686 14,84" id="Fill-8" fill="#FFFFFF"></path>
                                    <path d="M126,28 C126,31.314 123.312,34 120,34 C116.687,34 114,31.314 114,28 C114,24.686 116.687,22 120,22 C123.312,22 126,24.686 126,28" id="Fill-10" fill="#FFFFFF"></path>
                                    <path d="M50,38 C47.794,38 46,39.794 46,42 C46,44.206 47.794,46 50,46 C52.206,46 54,44.206 54,42 C54,39.794 52.206,38 50,38 M50,50 C45.589,50 42,46.411 42,42 C42,37.589 45.589,34 50,34 C54.411,34 58,37.589 58,42 C58,46.411 54.411,50 50,50" id="Fill-12" fill="#2D2D2E"></path>
                                    <path d="M78,66 C75.794,66 74,67.794 74,70 C74,72.206 75.794,74 78,74 C80.206,74 82,72.206 82,70 C82,67.794 80.206,66 78,66 M78,78 C73.589,78 70,74.411 70,70 C70,65.589 73.589,62 78,62 C82.411,62 86,65.589 86,70 C86,74.411 82.411,78 78,78" id="Fill-14" fill="#2D2D2E"></path>
                                    <path d="M8,80 C5.794,80 4,81.794 4,84 C4,86.206 5.794,88 8,88 C10.206,88 12,86.206 12,84 C12,81.794 10.206,80 8,80 M8,92 C3.589,92 0,88.411 0,84 C0,79.589 3.589,76 8,76 C12.411,76 16,79.589 16,84 C16,88.411 12.411,92 8,92" id="Fill-16" fill="#2D2D2E"></path>
                                    <path d="M120,24 C117.794,24 116,25.794 116,28 C116,30.206 117.794,32 120,32 C122.206,32 124,30.206 124,28 C124,25.794 122.206,24 120,24 M120,36 C115.589,36 112,32.411 112,28 C112,23.589 115.589,20 120,20 C124.411,20 128,23.589 128,28 C128,32.411 124.411,36 120,36" id="Fill-18" fill="#2D2D2E"></path>
                                    <mask id="mask-2" fill="white">
                                        <use xlink:href="#path-1"></use>
                                    </mask>
                                    <g id="Clip-21"></g>
                                    <polygon id="Fill-20" fill="#2D2D2E" mask="url(#mask-2)" points="16 12 20 12 20 8 16 8"></polygon>
                                    <polygon id="Fill-22" fill="#2D2D2E" mask="url(#mask-2)" points="16 20 20 20 20 16 16 16"></polygon>
                                    <polygon id="Fill-23" fill="#2D2D2E" mask="url(#mask-2)" points="16 28 20 28 20 24 16 24"></polygon>
                                </g>
                            </g>
                        </g>
                    </g>
                </g>
            </g>
        </g>
    </g>
</svg>