<?xml version="1.0" encoding="UTF-8"?>
<svg width="109px" height="109px" viewBox="0 0 109 109" version="1.1" xmlns="http://www.w3.org/2000/svg" xmlns:xlink="http://www.w3.org/1999/xlink">
    <!-- Generator: Sketch 58 (84663) - https://sketch.com -->
    <title>Clock</title>
    <desc>Created with Sketch.</desc>
    <defs>
        <polygon id="path-1" points="0.0270284211 0 80.9997442 0 80.9997442 96.6160842 0.0270284211 96.6160842"></polygon>
    </defs>
    <g id="Page-1" stroke="none" stroke-width="1" fill="none" fill-rule="evenodd">
        <g id="ISF_Desktop" transform="translate(-556.000000, -2258.000000)">
            <g id="Clock" transform="translate(556.000000, 2258.000000)">
                <g id="Group-36">
                    <path d="M102,54.5 C102,80.7335714 80.7335714,102 54.5,102 C28.2664286,102 7,80.7335714 7,54.5 C7,28.2664286 28.2664286,7 54.5,7 C80.7335714,7 102,28.2664286 102,54.5" id="Fill-1" fill="#EFC72E"></path>
                    <path d="M54.3003488,109 C24.3587971,109 0,84.4742886 0,54.3275678 C0,37.8660402 7.26436854,22.4390175 19.928228,12 L22.077334,14.6447789 C10.2033749,24.4311443 3.3937718,38.8954196 3.3937718,54.3275678 C3.3937718,82.5897982 26.2304622,105.582973 54.3003488,105.582973 C63.079188,105.582973 71.7341545,103.296128 79.3294158,98.9710257 L81,101.945548 C72.8965214,106.561097 63.6637652,109 54.3003488,109" id="Fill-3" fill="#2D2D2E"></path>
                    <g id="Group-7" transform="translate(28.000000, 0.000000)">
                        <mask id="mask-2" fill="white">
                            <use xlink:href="#path-1"></use>
                        </mask>
                        <g id="Clip-6"></g>
                        <path d="M60.9731337,96.6160842 L58.8134179,93.9817684 C70.7459968,84.2341193 77.5892179,69.8279175 77.5892179,54.4559702 C77.5892179,26.3055491 54.6397863,3.4033386 26.4313232,3.4033386 C17.7677337,3.4033386 9.20816526,5.60370702 1.67857579,9.76619825 L0.0270284211,6.78982982 C8.05967053,2.3474 17.1905021,-0.000170175439 26.4313232,-0.000170175439 C56.5206916,-0.000170175439 80.9997442,24.428514 80.9997442,54.4559702 C80.9997442,70.8523737 73.7003653,86.2183649 60.9731337,96.6160842" id="Fill-5" fill="#2D2D2E" mask="url(#mask-2)"></path>
                    </g>
                    <polygon id="Fill-8" fill="#2D2D2E" points="24 22 20.5714286 22 20.5714286 13.4285714 12 13.4285714 12 10 24 10"></polygon>
                    <polygon id="Fill-10" fill="#2D2D2E" points="97 99 85 99 85 87 88.4285714 87 88.4285714 95.5714286 97 95.5714286"></polygon>
                    <path d="M99,54.5 C99,79.0768365 79.0768365,99 54.5,99 C29.9231635,99 10,79.0768365 10,54.5 C10,29.9231635 29.9231635,10 54.5,10 C79.0768365,10 99,29.9231635 99,54.5" id="Fill-12" fill="#79C9CC"></path>
                    <path d="M54.5,22 C52.56975,22 51,20.43025 51,18.5 C51,16.56975 52.56975,15 54.5,15 C56.43025,15 58,16.56975 58,18.5 C58,20.43025 56.43025,22 54.5,22 L54.5,22 Z" id="Fill-14" fill="#FFFFFF"></path>
                    <path d="M54.5,94 C52.56975,94 51,92.43025 51,90.5 C51,88.56975 52.56975,87 54.5,87 C56.43025,87 58,88.56975 58,90.5 C58,92.43025 56.43025,94 54.5,94 L54.5,94 Z" id="Fill-16" fill="#FFFFFF"></path>
                    <path d="M90.5,58 C88.56975,58 87,56.43025 87,54.5 C87,52.56975 88.56975,51 90.5,51 C92.43025,51 94,52.56975 94,54.5 C94,56.43025 92.43025,58 90.5,58" id="Fill-18" fill="#FFFFFF"></path>
                    <path d="M18.5,58 C16.56975,58 15,56.43025 15,54.5 C15,52.56975 16.56975,51 18.5,51 C20.43025,51 22,52.56975 22,54.5 C22,56.43025 20.43025,58 18.5,58" id="Fill-20" fill="#FFFFFF"></path>
                    <path d="M80.5001095,32 C79.6036893,32 78.7063937,31.65859 78.0244491,30.9775207 C76.6588089,29.6110052 76.6588089,27.3892138 78.0226982,26.0253245 C79.3883384,24.6588089 81.6118806,24.6579335 82.9757699,26.0244491 C84.34141,27.3892138 84.34141,29.6110052 82.9757699,30.9766453 L82.9748945,30.9775207 C82.2929498,31.65859 81.3956543,32 80.5001095,32" id="Fill-22" fill="#FFFFFF"></path>
                    <path d="M28.4998357,84 C27.6034296,84 26.7070234,83.6585793 26.0242141,82.9757379 C24.6585953,81.6109305 24.6585953,79.3881941 26.0242141,78.0233867 C27.3898328,76.6585793 29.6115895,76.6594547 30.9754574,78.0225113 C32.3410762,79.3881941 32.3410762,81.6109305 30.9780836,82.9748624 L30.9763328,82.9757379 C30.2943988,83.6585793 29.3971173,84 28.4998357,84" id="Fill-24" fill="#FFFFFF"></path>
                    <path d="M80.5002735,84 C79.602992,84 78.7057104,83.65859 78.0237764,82.9757699 L78.022901,82.9748945 C76.659033,81.6110052 76.659033,79.3883383 78.022901,78.024449 C79.3885198,76.6579334 81.6111519,76.6596842 82.9750199,78.0226981 C84.3415141,79.3883383 84.3415141,81.6110052 82.9758953,82.9757699 C82.2939613,83.65859 81.3966797,84 80.5002735,84" id="Fill-26" fill="#FFFFFF"></path>
                    <path d="M28.4997811,32 C27.6033889,32 26.7078722,31.6594388 26.0250735,30.9783163 L26.0241981,30.9774408 C24.6586006,29.6108185 24.6586006,27.3888534 26.0241981,26.0239821 C27.3889201,24.6573597 29.6132682,24.6599862 30.9762395,26.0239821 C32.3409616,27.3888534 32.3409616,29.6108185 30.9779903,30.9756899 C30.2943162,31.6594388 29.3961733,32 28.4997811,32" id="Fill-28" fill="#FFFFFF"></path>
                    <polygon id="Fill-30" fill="#2D2D2E" points="72.5519005 74 53 54.9718426 53 29 56.4626584 29 56.4626584 53.5767027 75 71.6174786"></polygon>
                    <path d="M58,54.5 C58,56.432875 56.432875,58 54.5,58 C52.567125,58 51,56.432875 51,54.5 C51,52.567125 52.567125,51 54.5,51 C56.432875,51 58,52.567125 58,54.5" id="Fill-32" fill="#FFFFFF"></path>
                    <path d="M55,53.3333333 C54.0808333,53.3333333 53.3333333,54.0808333 53.3333333,55 C53.3333333,55.9191667 54.0808333,56.6666667 55,56.6666667 C55.9191667,56.6666667 56.6666667,55.9191667 56.6666667,55 C56.6666667,54.0808333 55.9191667,53.3333333 55,53.3333333 M55,60 C52.2425,60 50,57.7575 50,55 C50,52.2425 52.2425,50 55,50 C57.7575,50 60,52.2425 60,55 C60,57.7575 57.7575,60 55,60" id="Fill-34" fill="#2D2D2E"></path>
                </g>
            </g>
        </g>
    </g>
</svg>