<?xml version="1.0" encoding="UTF-8"?>
<svg width="128px" height="120px" viewBox="0 0 128 120" version="1.1" xmlns="http://www.w3.org/2000/svg" xmlns:xlink="http://www.w3.org/1999/xlink">
    <!-- Generator: Sketch 58 (84663) - https://sketch.com -->
    <title>Commercial</title>
    <desc>Created with Sketch.</desc>
    <defs>
        <polygon id="path-1" points="0 120 128 120 128 0 0 0"></polygon>
    </defs>
    <g id="Page-1" stroke="none" stroke-width="1" fill="none" fill-rule="evenodd">
        <g id="ISF_Desktop" transform="translate(-204.000000, -3260.000000)">
            <g id="Draining-Super" transform="translate(200.000000, 2845.000000)">
                <g id="Projects-Include" transform="translate(0.000000, 338.000000)">
                    <g id="Commercial" transform="translate(4.000000, 77.000000)">
                        <g id="Group-57">
                            <polygon id="Fill-1" fill="#EFC72E" points="28 44 100 44 100 36 28 36"></polygon>
                            <polygon id="Fill-2" fill="#2D2D2E" points="0 120 128 120 128 116 0 116"></polygon>
                            <polygon id="Fill-3" fill="#FFFFFF" points="63.9999 0.0003 43.9999 10.0003 43.9999 116.0003 83.9999 116.0003 83.9999 10.0003"></polygon>
                            <polygon id="Fill-4" fill="#FFFFFF" points="99.9999 36.0003 99.9999 116.0003 127.9999 116.0003 127.9999 36.0003 113.9999 28.0003"></polygon>
                            <polygon id="Fill-5" fill="#FFFFFF" points="0 36.0003 0 116.0003 28 116.0003 28 36.0003 14 28.0003"></polygon>
                            <polygon id="Fill-6" fill="#2D2D2E" points="28 48 44 48 44 44 28 44"></polygon>
                            <polygon id="Fill-7" fill="#2D2D2E" points="84 48 100 48 100 44 84 44"></polygon>
                            <polygon id="Fill-8" fill="#00A8E9" points="28 116 44 116 44 48 28 48"></polygon>
                            <polygon id="Fill-9" fill="#00A8E9" points="84 116 100 116 100 48 84 48"></polygon>
                            <polygon id="Fill-10" fill="#2D2D2E" points="90 68 94 68 94 56 90 56"></polygon>
                            <polygon id="Fill-11" fill="#2D2D2E" points="52 68 56 68 56 56 52 56"></polygon>
                            <polygon id="Fill-12" fill="#2D2D2E" points="72 68 76 68 76 56 72 56"></polygon>
                            <polygon id="Fill-13" fill="#2D2D2E" points="62 68 66 68 66 56 62 56"></polygon>
                            <polygon id="Fill-14" fill="#2D2D2E" points="52 48 56 48 56 36 52 36"></polygon>
                            <polygon id="Fill-15" fill="#2D2D2E" points="72 48 76 48 76 36 72 36"></polygon>
                            <polygon id="Fill-16" fill="#2D2D2E" points="62 48 66 48 66 36 62 36"></polygon>
                            <polygon id="Fill-17" fill="#2D2D2E" points="52 88 56 88 56 76 52 76"></polygon>
                            <polygon id="Fill-18" fill="#2D2D2E" points="72 88 76 88 76 76 72 76"></polygon>
                            <polygon id="Fill-19" fill="#2D2D2E" points="62 88 66 88 66 76 62 76"></polygon>
                            <polygon id="Fill-20" fill="#2D2D2E" points="52 108 56 108 56 96 52 96"></polygon>
                            <polygon id="Fill-21" fill="#2D2D2E" points="72 108 76 108 76 96 72 96"></polygon>
                            <polygon id="Fill-22" fill="#2D2D2E" points="62 108 66 108 66 96 62 96"></polygon>
                            <polygon id="Fill-23" fill="#2D2D2E" points="90 88 94 88 94 76 90 76"></polygon>
                            <polygon id="Fill-24" fill="#2D2D2E" points="90 108 94 108 94 96 90 96"></polygon>
                            <polygon id="Fill-25" fill="#2D2D2E" points="34 68 38 68 38 56 34 56"></polygon>
                            <polygon id="Fill-26" fill="#2D2D2E" points="34 88 38 88 38 76 34 76"></polygon>
                            <g id="Group-56">
                                <path d="M70,20 C70,23.314 67.313,26 64,26 C60.687,26 58,23.314 58,20 C58,16.687 60.687,14 64,14 C67.313,14 70,16.687 70,20" id="Fill-27" fill="#79C9CC"></path>
                                <mask id="mask-2" fill="white">
                                    <use xlink:href="#path-1"></use>
                                </mask>
                                <g id="Clip-30"></g>
                                <polygon id="Fill-29" fill="#2D2D2E" mask="url(#mask-2)" points="34 108 38 108 38 96 34 96"></polygon>
                                <path d="M64,16 C61.794,16 60,17.794 60,20 C60,22.206 61.794,24 64,24 C66.206,24 68,22.206 68,20 C68,17.794 66.206,16 64,16 M64,28 C59.589,28 56,24.411 56,20 C56,15.589 59.589,12 64,12 C68.411,12 72,15.589 72,20 C72,24.411 68.411,28 64,28" id="Fill-31" fill="#2D2D2E" mask="url(#mask-2)"></path>
                                <polygon id="Fill-32" fill="#2D2D2E" mask="url(#mask-2)" points="106 48 110 48 110 44 106 44"></polygon>
                                <polygon id="Fill-33" fill="#2D2D2E" mask="url(#mask-2)" points="118 48 122 48 122 44 118 44"></polygon>
                                <polygon id="Fill-34" fill="#2D2D2E" mask="url(#mask-2)" points="106 60 110 60 110 56 106 56"></polygon>
                                <polygon id="Fill-35" fill="#2D2D2E" mask="url(#mask-2)" points="118 60 122 60 122 56 118 56"></polygon>
                                <polygon id="Fill-36" fill="#2D2D2E" mask="url(#mask-2)" points="106 72 110 72 110 68 106 68"></polygon>
                                <polygon id="Fill-37" fill="#2D2D2E" mask="url(#mask-2)" points="118 72 122 72 122 68 118 68"></polygon>
                                <polygon id="Fill-38" fill="#2D2D2E" mask="url(#mask-2)" points="106 84 110 84 110 80 106 80"></polygon>
                                <polygon id="Fill-39" fill="#2D2D2E" mask="url(#mask-2)" points="118 84 122 84 122 80 118 80"></polygon>
                                <polygon id="Fill-40" fill="#2D2D2E" mask="url(#mask-2)" points="106 96 110 96 110 92 106 92"></polygon>
                                <polygon id="Fill-41" fill="#2D2D2E" mask="url(#mask-2)" points="118 96 122 96 122 92 118 92"></polygon>
                                <polygon id="Fill-42" fill="#2D2D2E" mask="url(#mask-2)" points="106 108 110 108 110 104 106 104"></polygon>
                                <polygon id="Fill-43" fill="#2D2D2E" mask="url(#mask-2)" points="118 108 122 108 122 104 118 104"></polygon>
                                <polygon id="Fill-44" fill="#2D2D2E" mask="url(#mask-2)" points="6 48 10 48 10 44 6 44"></polygon>
                                <polygon id="Fill-45" fill="#2D2D2E" mask="url(#mask-2)" points="18 48 22 48 22 44 18 44"></polygon>
                                <polygon id="Fill-46" fill="#2D2D2E" mask="url(#mask-2)" points="6 60 10 60 10 56 6 56"></polygon>
                                <polygon id="Fill-47" fill="#2D2D2E" mask="url(#mask-2)" points="18 60 22 60 22 56 18 56"></polygon>
                                <polygon id="Fill-48" fill="#2D2D2E" mask="url(#mask-2)" points="6 72 10 72 10 68 6 68"></polygon>
                                <polygon id="Fill-49" fill="#2D2D2E" mask="url(#mask-2)" points="18 72 22 72 22 68 18 68"></polygon>
                                <polygon id="Fill-50" fill="#2D2D2E" mask="url(#mask-2)" points="6 84 10 84 10 80 6 80"></polygon>
                                <polygon id="Fill-51" fill="#2D2D2E" mask="url(#mask-2)" points="18 84 22 84 22 80 18 80"></polygon>
                                <polygon id="Fill-52" fill="#2D2D2E" mask="url(#mask-2)" points="6 96 10 96 10 92 6 92"></polygon>
                                <polygon id="Fill-53" fill="#2D2D2E" mask="url(#mask-2)" points="18 96 22 96 22 92 18 92"></polygon>
                                <polygon id="Fill-54" fill="#2D2D2E" mask="url(#mask-2)" points="6 108 10 108 10 104 6 104"></polygon>
                                <polygon id="Fill-55" fill="#2D2D2E" mask="url(#mask-2)" points="18 108 22 108 22 104 18 104"></polygon>
                            </g>
                        </g>
                    </g>
                </g>
            </g>
        </g>
    </g>
</svg>