<?xml version="1.0" encoding="UTF-8"?>
<svg width="84px" height="93px" viewBox="0 0 84 93" version="1.1" xmlns="http://www.w3.org/2000/svg" xmlns:xlink="http://www.w3.org/1999/xlink">
    <!-- Generator: Sketch 58 (84663) - https://sketch.com -->
    <title>ManIcon</title>
    <desc>Created with Sketch.</desc>
    <defs>
        <polygon id="path-1" points="0 93 84 93 84 0 0 0"></polygon>
    </defs>
    <g id="Page-1" stroke="none" stroke-width="1" fill="none" fill-rule="evenodd">
        <g id="ISF_Desktop" transform="translate(-521.000000, -2498.000000)">
            <g id="Less-Super" transform="translate(200.000000, 2401.000000)">
                <g id="Gender" transform="translate(320.000000, 72.000000)">
                    <g id="ManIcon" transform="translate(1.000000, 25.000000)">
                        <g id="Group-20">
                            <path d="M28,16 C28,7.7155 34.4931,1 42.5,1 C50.5069,1 57,7.7155 57,16 L28,16 Z" id="Fill-1" fill="#FFFFFF"></path>
                            <polygon id="Fill-3" fill="#FFFFFF" points="54 48.3076923 42.5 60 31 48.3076923 31 41 54 41"></polygon>
                            <path d="M65.1724138,56.7096774 L57.9310345,52.3548387 L53.5862069,48 L42,59.6129032 L30.4137931,48 L26.0689655,52.3548387 L18.8275862,56.7096774 C12.222,60.0193548 0,65.4193548 0,74.1290323 L0,93 L84,93 L84,74.1290323 C84,65.4193548 71.778,60.0193548 65.1724138,56.7096774" id="Fill-5" fill="#FFFFFF"></path>
                            <path d="M57.5,33 L54.5,33 C53.6705,33 53,32.3528889 53,31.5555556 L53,21.4444444 C53,20.6471111 53.6705,20 54.5,20 L57.5,20 C58.3295,20 59,20.6471111 59,21.4444444 L59,31.5555556 C59,32.3528889 58.3295,33 57.5,33" id="Fill-7" fill="#FFFFFF"></path>
                            <path d="M29.5,33 L26.5,33 C25.6705,33 25,32.3528889 25,31.5555556 L25,21.4444444 C25,20.6471111 25.6705,20 26.5,20 L29.5,20 C30.3295,20 31,20.6471111 31,21.4444444 L31,31.5555556 C31,32.3528889 30.3295,33 29.5,33" id="Fill-9" fill="#FFFFFF"></path>
                            <mask id="mask-2" fill="white">
                                <use xlink:href="#path-1"></use>
                            </mask>
                            <g id="Clip-12"></g>
                            <polygon id="Fill-11" fill="#2D2D2E" mask="url(#mask-2)" points="61 81 64 81 64 78 61 78"></polygon>
                            <polygon id="Fill-13" fill="#2D2D2E" mask="url(#mask-2)" points="14 93 17 93 17 78 14 78"></polygon>
                            <polygon id="Fill-14" fill="#2D2D2E" mask="url(#mask-2)" points="67 93 70 93 70 78 67 78"></polygon>
                            <path d="M28,16 L28,33.4545455 C28,41.488 35.25,48 42.5,48 C49.75,48 57,41.488 57,33.4545455 L57,16 L28,16 Z" id="Fill-15" fill="#FFFFFF" mask="url(#mask-2)"></path>
                            <path d="M58,13 L58,26 L56.5454545,26 L56.5454545,15.8888889 L49.2727273,8.66666667 L40.5454545,14.4444444 L36.1818182,10.1111111 L27.4545455,15.8888889 L27.4545455,26 L26,26 L26,13 C26,5.81966667 31.8603636,0 39.0909091,0 L44.9090909,0 C52.1396364,0 58,5.81966667 58,13" id="Fill-16" fill="#00A8E9" mask="url(#mask-2)"></path>
                            <polygon id="Fill-17" fill="#EFC72E" mask="url(#mask-2)" points="38 93 47 93 47 70 38 70"></polygon>
                            <path d="M36.7475063,65 L25.4153928,53.6678864 C24.8615357,53.1140294 24.8615357,52.2187924 25.4153928,51.6649354 L29.6649354,47.4153928 C30.2187924,46.8615357 31.1140294,46.8615357 31.6678864,47.4153928 L43,58.7475063 L40.9970489,60.7504574 L30.6664109,50.4198194 L28.4198194,52.6664109 L38.7504574,62.9970489 L36.7475063,65 Z" id="Fill-18" fill="#2D2D2E" mask="url(#mask-2)"></path>
                            <path d="M42.9230207,93 L40,93 L40,59.2190139 C40,58.8297982 40.1534586,58.4552699 40.4282225,58.1806158 L52.1203054,46.4307076 C52.6917559,45.8564308 53.6154305,45.8564308 54.186881,46.4307076 L58.5714121,50.8369231 C59.1428626,51.4111999 59.1428626,52.3394427 58.5714121,52.9137194 L46.8793292,64.6636276 L44.8127536,62.5868314 L55.4715486,51.8753213 L53.1535932,49.545902 L42.9230207,59.8270717 L42.9230207,93 Z" id="Fill-19" fill="#2D2D2E" mask="url(#mask-2)"></path>
                        </g>
                    </g>
                </g>
            </g>
        </g>
    </g>
</svg>