<?xml version="1.0" encoding="UTF-8"?>
<svg width="101px" height="108px" viewBox="0 0 101 108" version="1.1" xmlns="http://www.w3.org/2000/svg" xmlns:xlink="http://www.w3.org/1999/xlink">
    <!-- Generator: Sketch 58 (84663) - https://sketch.com -->
    <title>Money</title>
    <desc>Created with Sketch.</desc>
    <defs>
        <polygon id="path-1" points="0 108 101 108 101 0 0 0"></polygon>
    </defs>
    <g id="Page-1" stroke="none" stroke-width="1" fill="none" fill-rule="evenodd">
        <g id="ISF_Desktop" transform="translate(-573.000000, -4562.000000)">
            <g id="Money" transform="translate(573.000000, 4562.000000)">
                <g id="Group-60">
                    <path d="M27.047619,24 C20.2857143,30.72 0,29.04 0,66 L0,92.88 C0,101.23128 6.81092857,108 15.2142857,108 L55.7857143,108 C64.1890714,108 71,101.23128 71,92.88 L71,62.64 C71,32.4 50.7142857,30.72 43.952381,24 L27.047619,24 Z" id="Fill-1" fill="#FFFFFF"></path>
                    <polygon id="Fill-3" fill="#FFFFFF" points="50 3.33333333 43.3333333 0 35 3.33333333 26.6666667 0 20 3.33333333 26.6666667 20 43.3333333 20"></polygon>
                    <path d="M61,59.5 C61,73.5828 49.5811,85 35.5,85 C21.4172,85 10,73.5828 10,59.5 C10,45.4172 21.4172,34 35.5,34 C49.5811,34 61,45.4172 61,59.5" id="Fill-5" fill="#F7F7F7"></path>
                    <path d="M57,59 C57,71.1490769 47.1490769,81 35,81 C22.8492308,81 13,71.1490769 13,59 C13,46.8509231 22.8492308,37 35,37 C47.1490769,37 57,46.8509231 57,59" id="Fill-7" fill="#EFC72E"></path>
                    <path d="M43.5714286,25 L26.4285714,25 C24.536,25 23,23.432 23,21.5 C23,19.568 24.536,18 26.4285714,18 L43.5714286,18 C45.464,18 47,19.568 47,21.5 C47,23.432 45.464,25 43.5714286,25" id="Fill-9" fill="#595857"></path>
                    <polygon id="Fill-11" fill="#2D2D2E" points="40 68 30 68 30 64.6 36.6666667 64.6 36.6666667 62.2506 30 58.8506 30 51 40 51 40 54.4 33.3333333 54.4 33.3333333 56.7494 40 60.1494"></polygon>
                    <mask id="mask-2" fill="white">
                        <use xlink:href="#path-1"></use>
                    </mask>
                    <g id="Clip-14"></g>
                    <polygon id="Fill-13" fill="#2D2D2E" mask="url(#mask-2)" points="34 71 37 71 37 66 34 66"></polygon>
                    <polygon id="Fill-15" fill="#2D2D2E" mask="url(#mask-2)" points="34 52 37 52 37 47 34 47"></polygon>
                    <polygon id="Fill-16" fill="#2D2D2E" mask="url(#mask-2)" points="44 61 47 61 47 58 44 58"></polygon>
                    <polygon id="Fill-17" fill="#2D2D2E" mask="url(#mask-2)" points="51 23 54 23 54 20 51 20"></polygon>
                    <polygon id="Fill-18" fill="#2D2D2E" mask="url(#mask-2)" points="57 23 60 23 60 20 57 20"></polygon>
                    <polygon id="Fill-19" fill="#2D2D2E" mask="url(#mask-2)" points="10 23 13 23 13 20 10 20"></polygon>
                    <polygon id="Fill-20" fill="#2D2D2E" mask="url(#mask-2)" points="17 23 20 23 20 20 17 20"></polygon>
                    <polygon id="Fill-21" fill="#2D2D2E" mask="url(#mask-2)" points="24 61 27 61 27 58 24 58"></polygon>
                    <path d="M50.3333333,90.6666667 L63.6666667,90.6666667 L63.6666667,87.3333333 L50.3333333,87.3333333 L50.3333333,90.6666667 Z M63.6666667,94 L50.3333333,94 C48.495,94 47,92.505 47,90.6666667 L47,87.3333333 C47,85.495 48.495,84 50.3333333,84 L63.6666667,84 C65.505,84 67,85.495 67,87.3333333 L67,90.6666667 C67,92.505 65.505,94 63.6666667,94 L63.6666667,94 Z" id="Fill-22" fill="#2D2D2E" mask="url(#mask-2)"></path>
                    <path d="M50.3333333,97.6666667 L63.6666667,97.6666667 L63.6666667,94.3333333 L50.3333333,94.3333333 L50.3333333,97.6666667 Z M63.6666667,101 L50.3333333,101 C48.495,101 47,99.505 47,97.6666667 L47,94.3333333 C47,92.495 48.495,91 50.3333333,91 L63.6666667,91 C65.505,91 67,92.495 67,94.3333333 L67,97.6666667 C67,99.505 65.505,101 63.6666667,101 L63.6666667,101 Z" id="Fill-23" fill="#2D2D2E" mask="url(#mask-2)"></path>
                    <path d="M50.3333333,104.666667 L63.6666667,104.666667 L63.6666667,101.333333 L50.3333333,101.333333 L50.3333333,104.666667 Z M63.6666667,108 L50.3333333,108 C48.495,108 47,106.505 47,104.666667 L47,101.333333 C47,99.495 48.495,98 50.3333333,98 L63.6666667,98 C65.505,98 67,99.495 67,101.333333 L67,104.666667 C67,106.505 65.505,108 63.6666667,108 L63.6666667,108 Z" id="Fill-24" fill="#2D2D2E" mask="url(#mask-2)"></path>
                    <path d="M67.3333333,90.6666667 L80.6666667,90.6666667 L80.6666667,87.3333333 L67.3333333,87.3333333 L67.3333333,90.6666667 Z M80.6666667,94 L67.3333333,94 C65.495,94 64,92.505 64,90.6666667 L64,87.3333333 C64,85.495 65.495,84 67.3333333,84 L80.6666667,84 C82.505,84 84,85.495 84,87.3333333 L84,90.6666667 C84,92.505 82.505,94 80.6666667,94 L80.6666667,94 Z" id="Fill-25" fill="#2D2D2E" mask="url(#mask-2)"></path>
                    <path d="M67.3333333,97.6666667 L80.6666667,97.6666667 L80.6666667,94.3333333 L67.3333333,94.3333333 L67.3333333,97.6666667 Z M80.6666667,101 L67.3333333,101 C65.495,101 64,99.505 64,97.6666667 L64,94.3333333 C64,92.495 65.495,91 67.3333333,91 L80.6666667,91 C82.505,91 84,92.495 84,94.3333333 L84,97.6666667 C84,99.505 82.505,101 80.6666667,101 L80.6666667,101 Z" id="Fill-26" fill="#2D2D2E" mask="url(#mask-2)"></path>
                    <path d="M67.3333333,104.666667 L80.6666667,104.666667 L80.6666667,101.333333 L67.3333333,101.333333 L67.3333333,104.666667 Z M80.6666667,108 L67.3333333,108 C65.495,108 64,106.505 64,104.666667 L64,101.333333 C64,99.495 65.495,98 67.3333333,98 L80.6666667,98 C82.505,98 84,99.495 84,101.333333 L84,104.666667 C84,106.505 82.505,108 80.6666667,108 L80.6666667,108 Z" id="Fill-27" fill="#2D2D2E" mask="url(#mask-2)"></path>
                    <path d="M67.3333333,77.6666667 L80.6666667,77.6666667 L80.6666667,74.3333333 L67.3333333,74.3333333 L67.3333333,77.6666667 Z M80.6666667,81 L67.3333333,81 C65.495,81 64,79.505 64,77.6666667 L64,74.3333333 C64,72.495 65.495,71 67.3333333,71 L80.6666667,71 C82.505,71 84,72.495 84,74.3333333 L84,77.6666667 C84,79.505 82.505,81 80.6666667,81 L80.6666667,81 Z" id="Fill-28" fill="#2D2D2E" mask="url(#mask-2)"></path>
                    <path d="M67.3333333,84.6666667 L80.6666667,84.6666667 L80.6666667,81.3333333 L67.3333333,81.3333333 L67.3333333,84.6666667 Z M80.6666667,88 L67.3333333,88 C65.495,88 64,86.505 64,84.6666667 L64,81.3333333 C64,79.495 65.495,78 67.3333333,78 L80.6666667,78 C82.505,78 84,79.495 84,81.3333333 L84,84.6666667 C84,86.505 82.505,88 80.6666667,88 L80.6666667,88 Z" id="Fill-29" fill="#2D2D2E" mask="url(#mask-2)"></path>
                    <path d="M84.3333333,90.6666667 L97.6666667,90.6666667 L97.6666667,87.3333333 L84.3333333,87.3333333 L84.3333333,90.6666667 Z M97.6666667,94 L84.3333333,94 C82.495,94 81,92.505 81,90.6666667 L81,87.3333333 C81,85.495 82.495,84 84.3333333,84 L97.6666667,84 C99.505,84 101,85.495 101,87.3333333 L101,90.6666667 C101,92.505 99.505,94 97.6666667,94 L97.6666667,94 Z" id="Fill-30" fill="#2D2D2E" mask="url(#mask-2)"></path>
                    <path d="M84.3333333,97.6666667 L97.6666667,97.6666667 L97.6666667,94.3333333 L84.3333333,94.3333333 L84.3333333,97.6666667 Z M97.6666667,101 L84.3333333,101 C82.495,101 81,99.505 81,97.6666667 L81,94.3333333 C81,92.495 82.495,91 84.3333333,91 L97.6666667,91 C99.505,91 101,92.495 101,94.3333333 L101,97.6666667 C101,99.505 99.505,101 97.6666667,101 L97.6666667,101 Z" id="Fill-31" fill="#2D2D2E" mask="url(#mask-2)"></path>
                    <path d="M84.3333333,104.666667 L97.6666667,104.666667 L97.6666667,101.333333 L84.3333333,101.333333 L84.3333333,104.666667 Z M97.6666667,108 L84.3333333,108 C82.495,108 81,106.505 81,104.666667 L81,101.333333 C81,99.495 82.495,98 84.3333333,98 L97.6666667,98 C99.505,98 101,99.495 101,101.333333 L101,104.666667 C101,106.505 99.505,108 97.6666667,108 L97.6666667,108 Z" id="Fill-32" fill="#2D2D2E" mask="url(#mask-2)"></path>
                    <path d="M84.3333333,77.6666667 L97.6666667,77.6666667 L97.6666667,74.3333333 L84.3333333,74.3333333 L84.3333333,77.6666667 Z M97.6666667,81 L84.3333333,81 C82.495,81 81,79.505 81,77.6666667 L81,74.3333333 C81,72.495 82.495,71 84.3333333,71 L97.6666667,71 C99.505,71 101,72.495 101,74.3333333 L101,77.6666667 C101,79.505 99.505,81 97.6666667,81 L97.6666667,81 Z" id="Fill-33" fill="#2D2D2E" mask="url(#mask-2)"></path>
                    <path d="M84.3333333,84.6666667 L97.6666667,84.6666667 L97.6666667,81.3333333 L84.3333333,81.3333333 L84.3333333,84.6666667 Z M97.6666667,88 L84.3333333,88 C82.495,88 81,86.505 81,84.6666667 L81,81.3333333 C81,79.495 82.495,78 84.3333333,78 L97.6666667,78 C99.505,78 101,79.495 101,81.3333333 L101,84.6666667 C101,86.505 99.505,88 97.6666667,88 L97.6666667,88 Z" id="Fill-34" fill="#2D2D2E" mask="url(#mask-2)"></path>
                    <path d="M84.3333333,63.6666667 L97.6666667,63.6666667 L97.6666667,60.3333333 L84.3333333,60.3333333 L84.3333333,63.6666667 Z M97.6666667,67 L84.3333333,67 C82.495,67 81,65.505 81,63.6666667 L81,60.3333333 C81,58.495 82.495,57 84.3333333,57 L97.6666667,57 C99.505,57 101,58.495 101,60.3333333 L101,63.6666667 C101,65.505 99.505,67 97.6666667,67 L97.6666667,67 Z" id="Fill-35" fill="#2D2D2E" mask="url(#mask-2)"></path>
                    <path d="M84.3333333,47.6666667 L97.6666667,47.6666667 L97.6666667,44.3333333 L84.3333333,44.3333333 L84.3333333,47.6666667 Z M97.6666667,51 L84.3333333,51 C82.495,51 81,49.505 81,47.6666667 L81,44.3333333 C81,42.495 82.495,41 84.3333333,41 L97.6666667,41 C99.505,41 101,42.495 101,44.3333333 L101,47.6666667 C101,49.505 99.505,51 97.6666667,51 L97.6666667,51 Z" id="Fill-36" fill="#2D2D2E" mask="url(#mask-2)"></path>
                    <path d="M84.3333333,70.6666667 L97.6666667,70.6666667 L97.6666667,67.3333333 L84.3333333,67.3333333 L84.3333333,70.6666667 Z M97.6666667,74 L84.3333333,74 C82.495,74 81,72.505 81,70.6666667 L81,67.3333333 C81,65.495 82.495,64 84.3333333,64 L97.6666667,64 C99.505,64 101,65.495 101,67.3333333 L101,70.6666667 C101,72.505 99.505,74 97.6666667,74 L97.6666667,74 Z" id="Fill-37" fill="#2D2D2E" mask="url(#mask-2)"></path>
                    <polygon id="Fill-38" fill="#2D2D2E" mask="url(#mask-2)" points="93 27 96 27 96 24 93 24"></polygon>
                    <polygon id="Fill-39" fill="#2D2D2E" mask="url(#mask-2)" points="93 20 96 20 96 17 93 17"></polygon>
                    <polygon id="Fill-40" fill="#2D2D2E" mask="url(#mask-2)" points="93 13 96 13 96 10 93 10"></polygon>
                    <polygon id="Fill-41" fill="#2D2D2E" mask="url(#mask-2)" points="86 31 89 31 89 17 86 17"></polygon>
                    <polygon id="Fill-42" fill="#2D2D2E" mask="url(#mask-2)" points="86 37 89 37 89 34 86 34"></polygon>
                    <polygon id="Fill-43" fill="#EFC72E" mask="url(#mask-2)" points="84 64 97 64 97 61 84 61"></polygon>
                    <polygon id="Fill-44" fill="#EFC72E" mask="url(#mask-2)" points="84 71 97 71 97 68 84 68"></polygon>
                    <polygon id="Fill-45" fill="#EFC72E" mask="url(#mask-2)" points="84 77 97 77 97 74 84 74"></polygon>
                    <polygon id="Fill-46" fill="#EFC72E" mask="url(#mask-2)" points="84 84 97 84 97 81 84 81"></polygon>
                    <polygon id="Fill-47" fill="#EFC72E" mask="url(#mask-2)" points="84 91 97 91 97 88 84 88"></polygon>
                    <polygon id="Fill-48" fill="#EFC72E" mask="url(#mask-2)" points="84 98 97 98 97 95 84 95"></polygon>
                    <polygon id="Fill-49" fill="#EFC72E" mask="url(#mask-2)" points="84 104 97 104 97 101 84 101"></polygon>
                    <polygon id="Fill-50" fill="#EFC72E" mask="url(#mask-2)" points="68 77 81 77 81 74 68 74"></polygon>
                    <polygon id="Fill-51" fill="#EFC72E" mask="url(#mask-2)" points="68 84 81 84 81 81 68 81"></polygon>
                    <polygon id="Fill-52" fill="#EFC72E" mask="url(#mask-2)" points="68 91 81 91 81 88 68 88"></polygon>
                    <polygon id="Fill-53" fill="#EFC72E" mask="url(#mask-2)" points="68 98 81 98 81 95 68 95"></polygon>
                    <polygon id="Fill-54" fill="#EFC72E" mask="url(#mask-2)" points="68 104 81 104 81 101 68 101"></polygon>
                    <polygon id="Fill-55" fill="#EFC72E" mask="url(#mask-2)" points="51 91 64 91 64 88 51 88"></polygon>
                    <polygon id="Fill-56" fill="#EFC72E" mask="url(#mask-2)" points="51 98 64 98 64 95 51 95"></polygon>
                    <polygon id="Fill-57" fill="#EFC72E" mask="url(#mask-2)" points="51 104 64 104 64 101 51 101"></polygon>
                    <polygon id="Fill-58" fill="#EFC72E" mask="url(#mask-2)" points="84 47 97 47 97 44 84 44"></polygon>
                    <polygon id="Fill-59" fill="#2D2D2E" mask="url(#mask-2)" points="20 108 101 108 101 105 20 105"></polygon>
                </g>
            </g>
        </g>
    </g>
</svg>