<?xml version="1.0" encoding="UTF-8"?>
<svg width="108px" height="108px" viewBox="0 0 108 108" version="1.1" xmlns="http://www.w3.org/2000/svg" xmlns:xlink="http://www.w3.org/1999/xlink">
    <!-- Generator: Sketch 58 (84663) - https://sketch.com -->
    <title>pig</title>
    <desc>Created with Sketch.</desc>
    <defs>
        <polygon id="path-1" points="0 108 108 108 108 0 0 0"></polygon>
    </defs>
    <g id="Page-1" stroke="none" stroke-width="1" fill="none" fill-rule="evenodd">
        <g id="ISF_Desktop" transform="translate(-564.000000, -4725.000000)">
            <g id="Investment" transform="translate(188.000000, 3986.000000)">
                <g id="Arrows" transform="translate(10.000000, 573.000000)">
                    <g id="4" transform="translate(366.000000, 166.000000)">
                        <g id="pig">
                            <g id="Group-25">
                                <path d="M96,65.6595745 C96,47.1702128 77.1486316,32.0425532 53.8947368,32.0425532 C42.1052632,32.0425532 33.6842105,35.4042553 33.6842105,35.4042553 L21.8947368,27 L21.8947368,42.1276596 C16.8421053,45.4893617 13.824,50.5319149 11.7894737,55.5744681 L1.68421053,57.2553191 C0.754526316,57.2553191 0,58.0083404 0,58.9361702 L0,69.0212766 C0,69.9491064 0.754526316,70.7021277 1.68421053,70.7021277 L10.1052632,72.3829787 C11.6715789,80.6947872 16.8421053,87.5106383 25.2631579,91.4623191 L28.6315789,106 L40.4210526,106 L40.4210526,97.4831277 C44.6568421,98.6261064 49.1755789,99.2765957 53.8947368,99.2765957 C58.6088421,99.2765957 63.136,98.6479574 67.3684211,97.5083404 L67.3684211,106 L79.1578947,106 L82.5263158,91.4858511 C90.9473684,85.8297872 96,77.4255319 96,65.6595745" id="Fill-1" fill="#EFC72E"></path>
                                <path d="M73.4692891,45 C66.621282,41.7280899 60.0007436,40.2686415 52,40.2686415 L52,37 C60.5582986,37 67.654298,38.5656793 75,42.0762002 L73.4692891,45 Z" id="Fill-3" fill="#2D2D2E"></path>
                                <path d="M71,32 C71,35.86575 67.86575,39 64,39 C60.13425,39 57,35.86575 57,32 C57,28.13425 60.13425,25 64,25 C67.86575,25 71,28.13425 71,32" id="Fill-5" fill="#FFFFFF"></path>
                                <path d="M64.5,27.4 C61.6882,27.4 59.4,29.6882 59.4,32.5 C59.4,35.3118 61.6882,37.6 64.5,37.6 C67.3118,37.6 69.6,35.3118 69.6,32.5 C69.6,29.6882 67.3118,27.4 64.5,27.4 M64.5,41 C59.8131,41 56,37.1869 56,32.5 C56,27.8131 59.8131,24 64.5,24 C69.1869,24 73,27.8131 73,32.5 C73,37.1869 69.1869,41 64.5,41" id="Fill-7" fill="#2D2D2E"></path>
                                <path d="M53.994914,101 C49.2056188,101 44.4976992,100.39721 40,99.2065759 L40.88496,96.0016606 C49.305643,98.2284955 58.6977476,98.2268349 67.11504,96 L68,99.2049153 C63.5006055,100.39555 58.7892952,101 53.994914,101" id="Fill-9" fill="#2D2D2E"></path>
                                <mask id="mask-2" fill="white">
                                    <use xlink:href="#path-1"></use>
                                </mask>
                                <g id="Clip-12"></g>
                                <polygon id="Fill-11" fill="#2D2D2E" mask="url(#mask-2)" points="39 106 42 106 42 91 39 91"></polygon>
                                <polygon id="Fill-13" fill="#2D2D2E" mask="url(#mask-2)" points="66 106 69 106 69 91 66 91"></polygon>
                                <path d="M30.5,62 C25.8131,62 22,58.4112 22,54 L25.4,54 C25.4,56.6464 27.6882,58.8 30.5,58.8 C33.3118,58.8 35.6,56.6464 35.6,54 L39,54 C39,58.4112 35.1869,62 30.5,62" id="Fill-14" fill="#2D2D2E" mask="url(#mask-2)"></path>
                                <polygon id="Fill-15" fill="#2D2D2E" mask="url(#mask-2)" points="59 13 62 13 62 3 59 3"></polygon>
                                <polygon id="Fill-16" fill="#2D2D2E" mask="url(#mask-2)" points="66 17 69 17 69 14 66 14"></polygon>
                                <polygon id="Fill-17" fill="#2D2D2E" mask="url(#mask-2)" points="66 10 69 10 69 7 66 7"></polygon>
                                <polygon id="Fill-18" fill="#2D2D2E" mask="url(#mask-2)" points="66 3 69 3 69 0 66 0"></polygon>
                                <polygon id="Fill-19" fill="#2D2D2E" mask="url(#mask-2)" points="59 20 62 20 62 17 59 17"></polygon>
                                <polygon id="Fill-20" fill="#2D2D2E" mask="url(#mask-2)" points="53 84 56 84 56 81 53 81"></polygon>
                                <polygon id="Fill-21" fill="#2D2D2E" mask="url(#mask-2)" points="59 84 62 84 62 81 59 81"></polygon>
                                <polygon id="Fill-22" fill="#2D2D2E" mask="url(#mask-2)" points="46 84 49 84 49 81 46 81"></polygon>
                                <polygon id="Fill-23" fill="#2D2D2E" mask="url(#mask-2)" points="0 108 108 108 108 105 0 105"></polygon>
                                <path d="M96.3333333,69 L93,69 L93,65.5714286 L96.3333333,65.5714286 C100.928333,65.5714286 104.666667,61.7262857 104.666667,57 L108,57 C108,63.6171429 102.766667,69 96.3333333,69" id="Fill-24" fill="#2D2D2E" mask="url(#mask-2)"></path>
                            </g>
                        </g>
                    </g>
                </g>
            </g>
        </g>
    </g>
</svg>